HIERARCHY
ROOT SpineBase
{
  OFFSET 0.000000 0.000000 0.000000
  CHANNELS 6 Xposition Yposition Zposition Zrotation Xrotation Yrotation
  JOINT SpineMid
  {
    OFFSET -0.000000 26.388254 0.000000
    CHANNELS 3 Zrotation Xrotation Yrotation
    JOINT SpineShoulder
    {
      OFFSET 0.381770 19.225661 -0.908206
      CHANNELS 3 Zrotation Xrotation Yrotation
      JOINT Neck
      {
        OFFSET 0.116518 6.209628 -0.658741
        CHANNELS 3 Zrotation Xrotation Yrotation
        JOINT Head
        {
          OFFSET -0.551599 10.559983 3.600478
          CHANNELS 3 Zrotation Xrotation Yrotation
          End Site
          {
            OFFSET 0 0 0
          }
        }
      }
      JOINT ShoulderLeft
      {
        OFFSET 2.247694 -5.150311 -7.874026
        CHANNELS 3 Zrotation Xrotation Yrotation
        JOINT ElbowLeft
        {
          OFFSET 3.296494 -20.892700 -6.618157
          CHANNELS 3 Zrotation Xrotation Yrotation
          JOINT WristLeft
          {
            OFFSET 4.204187 -21.869718 -9.098207
            CHANNELS 3 Zrotation Xrotation Yrotation
            JOINT HandLeft
            {
              OFFSET 0.821587 -5.129569 3.111316
              CHANNELS 3 Zrotation Xrotation Yrotation
              JOINT HandTipLeft
              {
                OFFSET 1.527281 -7.766653 -0.468487
                CHANNELS 3 Zrotation Xrotation Yrotation
                End Site
                {
                  OFFSET 0 0 0
                }
              }
              JOINT ThumbLeft
              {
                OFFSET 1.898953 0.421565 -3.958676
                CHANNELS 3 Zrotation Xrotation Yrotation
                End Site
                {
                  OFFSET 0 0 0
                }
              }
            }
          }
        }
      }
      JOINT ShoulderRight
      {
        OFFSET 10.576160 -1.791611 10.953794
        CHANNELS 3 Zrotation Xrotation Yrotation
        JOINT ElbowRight
        {
          OFFSET -0.404905 -17.582249 -16.102117
          CHANNELS 3 Zrotation Xrotation Yrotation
          JOINT WristRight
          {
            OFFSET -0.023099 -20.952364 -9.178176
            CHANNELS 3 Zrotation Xrotation Yrotation
            JOINT HandRight
            {
              OFFSET 0.375856 -6.889501 -2.115050
              CHANNELS 3 Zrotation Xrotation Yrotation
              JOINT HandTipRight
              {
                OFFSET 0.156099 -7.136412 -2.657331
                CHANNELS 3 Zrotation Xrotation Yrotation
                End Site
                {
                  OFFSET 0 0 0
                }
              }
              JOINT ThumbRight
              {
                OFFSET -3.090668 -1.209194 -0.665942
                CHANNELS 3 Zrotation Xrotation Yrotation
                End Site
                {
                  OFFSET 0 0 0
                }
              }
            }
          }
        }
      }
    }
  }
  JOINT HipLeft
  {
    OFFSET -1.904467 -0.040253 -0.677560
    CHANNELS 3 Zrotation Xrotation Yrotation
    JOINT KneeLeft
    {
      OFFSET 4.997340 -33.059138 1.780687
      CHANNELS 3 Zrotation Xrotation Yrotation
      JOINT AnkleLeft
      {
        OFFSET -3.381588 -30.635244 17.573319
        CHANNELS 3 Zrotation Xrotation Yrotation
        JOINT FootLeft
        {
          OFFSET 4.052959 -6.155536 -2.241465
          CHANNELS 3 Zrotation Xrotation Yrotation
          End Site
          {
            OFFSET 0 0 0
          }
        }
      }
    }
  }
  JOINT HipRight
  {
    OFFSET 2.788555 0.112440 -6.778223
    CHANNELS 3 Zrotation Xrotation Yrotation
    JOINT KneeRight
    {
      OFFSET -0.036398 -31.794535 4.547998
      CHANNELS 3 Zrotation Xrotation Yrotation
      JOINT AnkleRight
      {
        OFFSET 0.613531 -31.081579 20.273808
        CHANNELS 3 Zrotation Xrotation Yrotation
        JOINT FootRight
        {
          OFFSET 8.421758 -2.275499 -6.495094
          CHANNELS 3 Zrotation Xrotation Yrotation
          End Site
          {
            OFFSET 0 0 0
          }
        }
      }
    }
  }
}
MOTION
Frames: 15
Frame Time: 0.033333
16.305851 66.461298 338.588253 6.223816 -9.891749 79.802093 1.214492 -0.316986 -78.876210 -0.723678 0.824356 0.301974 -1.224158 5.835033 -2.642131 0.000000 0.000000 0.000000 -85.762060 -51.991683 -28.841558 -5.891693 -10.999749 2.782080 22.307430 50.440412 -39.537657 -2.732585 -42.811379 6.445535 0.000000 0.000000 0.000000 0.000000 0.000000 0.000000 1.834604 -3.777558 -8.333386 3.275456 -5.137622 3.044309 3.186256 23.600052 -2.775870 7.548379 -29.816664 2.338926 0.000000 0.000000 0.000000 0.000000 0.000000 0.000000 6.993542 20.959538 -80.050380 8.899533 6.698065 -2.415008 9.211628 -2.545713 4.983072 0.000000 0.000000 0.000000 2.322899 -4.388372 -78.101615 -18.107036 24.557209 -3.319311 3.771271 -23.414039 -17.457056 0.000000 0.000000 0.000000
17.145841 66.568103 339.346403 6.423176 -10.933739 79.450606 1.455608 -0.442372 -78.447760 -0.598734 0.834862 0.325652 -1.699977 5.985231 -2.710579 0.000000 0.000000 0.000000 -90.184249 -52.058482 -29.498576 -6.532824 -11.122931 4.643712 24.356425 46.590789 -45.650878 -14.621006 -54.151388 -4.029792 0.000000 0.000000 0.000000 0.000000 0.000000 0.000000 1.858931 -5.129204 -8.954505 4.653258 -7.284872 3.040087 4.113789 21.414351 -3.748982 5.867471 -30.796310 3.368952 0.000000 0.000000 0.000000 0.000000 0.000000 0.000000 8.540445 22.417391 -79.781320 10.052499 6.744354 -2.385932 10.567231 -7.052115 2.564895 0.000000 0.000000 0.000000 -0.038114 -3.829255 -77.705723 -17.719084 27.520867 -2.533081 -6.855611 -28.601632 -22.254235 0.000000 0.000000 0.000000
17.566456 66.684145 340.341863 6.136856 -12.050198 80.664158 1.571615 -0.470262 -79.633133 -0.474581 0.877861 0.312594 -0.904456 5.992593 -3.072497 0.000000 0.000000 0.000000 -92.558290 -51.751159 -28.629897 -7.773292 -12.033170 6.357418 28.686609 44.775368 -51.904863 -25.636204 -60.086419 -13.649036 0.000000 0.000000 0.000000 0.000000 0.000000 0.000000 2.063042 -3.801145 -9.108600 6.336779 -10.980512 2.915229 5.499676 20.948386 -5.091084 4.296749 -37.069941 6.268502 0.000000 0.000000 0.000000 0.000000 0.000000 0.000000 11.238873 22.665709 -81.254603 10.616483 6.527772 -2.440869 13.032128 -13.281979 -0.848259 0.000000 0.000000 0.000000 -1.851233 -4.103539 -78.939923 -17.346955 27.677610 -1.964174 -23.600986 -32.277914 -28.853549 0.000000 0.000000 0.000000
18.040982 66.828501 341.334357 5.927498 -13.146684 84.048296 1.739967 -0.590249 -82.989630 -0.551524 0.938369 0.302207 -0.075505 6.123614 -3.408882 0.000000 0.000000 0.000000 -94.317845 -51.626706 -27.969918 -8.224828 -12.348862 7.235659 34.232686 44.363059 -56.317669 -41.348288 -62.087963 -18.743272 0.000000 0.000000 0.000000 0.000000 0.000000 0.000000 2.478603 -4.792018 -9.368043 6.937813 -12.632890 3.074882 6.851705 19.187696 -6.294376 3.620903 -44.760158 10.362700 0.000000 0.000000 0.000000 0.000000 0.000000 0.000000 14.815254 22.538298 -85.015250 11.669180 6.570513 -2.326884 17.243581 -18.835058 -3.722274 0.000000 0.000000 0.000000 -4.144263 -4.669752 -82.342292 -17.334367 26.077539 -1.489431 -40.614512 -34.040746 -30.134256 0.000000 0.000000 0.000000
18.278856 66.980506 342.312008 5.556743 -14.139627 82.306952 1.885048 -0.636204 -81.256812 -0.562555 0.986014 0.288825 -0.459632 7.089938 -3.126154 0.000000 0.000000 0.000000 -95.059221 -51.250684 -26.331147 -10.509800 -14.121782 10.190149 41.076873 42.667356 -63.420737 -49.650776 -61.857764 -13.608586 0.000000 0.000000 0.000000 0.000000 0.000000 0.000000 2.932427 -7.425652 -9.649856 6.895742 -13.249056 3.373590 8.298698 12.798739 -7.085667 1.225663 -40.335935 11.187284 0.000000 0.000000 0.000000 0.000000 0.000000 0.000000 16.061159 22.926518 -83.330803 12.338583 7.199644 -2.201645 17.884255 -24.972502 -5.929913 0.000000 0.000000 0.000000 -7.285716 -6.690783 -80.760958 -17.409124 26.997714 -0.415053 -46.604540 -30.282004 -38.385234 0.000000 0.000000 0.000000
18.328680 67.139151 343.221281 4.848755 -14.987126 76.909674 1.961450 -0.516886 -75.931041 -0.506188 1.013333 0.256944 0.268197 8.113105 -3.239126 0.000000 0.000000 0.000000 -95.821124 -50.905659 -24.774289 -13.195176 -16.120966 15.117621 47.565681 36.030544 -72.635702 -49.732989 -59.269165 10.713907 0.000000 0.000000 0.000000 0.000000 0.000000 0.000000 3.742466 -12.520165 -10.003136 6.476029 -12.307720 3.617869 5.306288 1.070274 -4.019559 -0.640335 -24.100429 6.990767 0.000000 0.000000 0.000000 0.000000 0.000000 0.000000 15.340154 23.740541 -77.765999 12.978498 8.737754 -1.991030 16.679495 -29.784166 -7.091842 0.000000 0.000000 0.000000 -7.626609 -6.927681 -75.611973 -12.045479 23.230757 0.207450 -51.004661 -26.934472 -31.714090 0.000000 0.000000 0.000000
18.555796 67.332066 344.231815 4.119100 -15.520143 69.660520 1.922566 -0.445502 -68.780596 -0.384922 1.030847 0.225988 1.019304 8.762085 -3.434376 0.000000 0.000000 0.000000 -97.000057 -50.464258 -23.120903 -16.376841 -18.565442 23.861352 55.868826 28.646899 -83.261273 -41.452713 -53.694734 30.186137 0.000000 0.000000 0.000000 0.000000 0.000000 0.000000 4.315274 -18.859086 -10.245714 5.197678 -9.137409 3.924017 3.979375 -8.704018 -2.270675 -1.468639 -11.461521 4.925467 0.000000 0.000000 0.000000 0.000000 0.000000 0.000000 13.440389 24.871524 -70.192436 13.336684 10.485172 -1.940657 13.902448 -32.120359 -6.891371 0.000000 0.000000 0.000000 -5.722273 -6.286845 -68.531757 -5.662099 16.696386 0.904110 -50.322799 -23.973215 -15.439031 0.000000 0.000000 0.000000
18.820960 67.429773 345.182469 3.359034 -15.676267 61.818726 1.816627 -0.316336 -61.058022 -0.284931 1.021789 0.190030 2.125549 8.724621 -3.743869 0.000000 0.000000 0.000000 -100.419963 -50.426713 -23.316347 -16.632686 -18.184204 36.586384 59.460014 21.450519 -92.966828 -29.222108 -46.677793 44.174903 0.000000 0.000000 0.000000 0.000000 0.000000 0.000000 4.816104 -25.596761 -10.222950 3.918914 -6.171341 4.316177 1.421333 -9.616270 -0.860888 -0.593820 -4.798870 2.688792 0.000000 0.000000 0.000000 0.000000 0.000000 0.000000 10.660222 25.341513 -61.865493 13.078748 12.533513 -2.067596 11.258427 -30.976905 -4.750273 0.000000 0.000000 0.000000 -3.246972 -2.585811 -60.825702 3.762932 9.292794 2.672183 -45.413123 -17.463278 3.418513 0.000000 0.000000 0.000000
18.975466 67.499479 346.037041 2.748269 -15.827824 53.685625 1.761087 -0.134905 -53.023852 -0.222723 1.007712 0.160302 1.800476 9.398559 -3.311889 0.000000 0.000000 0.000000 -106.312397 -50.967605 -25.988157 -13.442087 -12.985500 55.217231 51.867229 13.515595 -108.016422 -9.931419 -35.273734 59.275360 0.000000 0.000000 0.000000 0.000000 0.000000 0.000000 5.229413 -32.234112 -10.187696 2.202798 -2.077352 5.074987 -0.255781 -11.061837 0.045426 0.889475 1.732466 0.228680 0.000000 0.000000 0.000000 0.000000 0.000000 0.000000 7.719329 25.229567 -53.211725 12.356114 14.772948 -2.272937 11.014943 -32.032640 -3.738098 0.000000 0.000000 0.000000 0.168732 1.679049 -52.942476 9.681089 3.840979 4.826334 -46.352506 -17.651272 19.049048 0.000000 0.000000 0.000000
19.332994 67.500065 347.160245 2.038525 -15.811858 46.742594 1.652177 -0.041543 -46.200807 -0.162724 0.971622 0.126321 2.333198 8.898759 -3.300923 0.000000 0.000000 0.000000 -114.002096 -50.848861 -27.857498 -9.465099 -4.671527 72.958810 41.145849 1.839705 -128.532714 -0.758915 -30.478407 63.612716 0.000000 0.000000 0.000000 0.000000 0.000000 0.000000 5.543448 -37.308371 -9.871099 0.583137 1.814506 5.794102 -0.736697 -8.151423 -0.359583 0.164755 4.113843 0.866992 0.000000 0.000000 0.000000 0.000000 0.000000 0.000000 4.816772 25.359688 -45.710101 13.202896 17.066172 -2.103760 1.679874 -25.571614 0.644384 0.000000 0.000000 0.000000 2.957531 8.006642 -46.523298 15.747439 -4.955325 8.034175 -42.862221 -13.478580 41.478176 0.000000 0.000000 0.000000
19.728898 67.387459 348.400887 1.332722 -15.805842 41.749393 1.632291 0.036814 -41.333204 -0.124172 0.957301 0.092928 2.756022 8.205175 -3.228269 0.000000 0.000000 0.000000 -121.057121 -50.739430 -30.500223 -5.838110 4.068306 85.202730 30.054448 0.210544 -148.463396 10.262263 -23.313605 54.393085 0.000000 0.000000 0.000000 0.000000 0.000000 0.000000 5.983446 -40.319012 -9.683245 -0.971964 5.723368 6.616798 -1.035027 -5.008242 -0.582592 -1.363204 2.605700 2.667509 0.000000 0.000000 0.000000 0.000000 0.000000 0.000000 4.290855 25.369708 -40.605942 12.324051 17.074020 -2.431053 -3.263242 -23.075438 2.971874 0.000000 0.000000 0.000000 5.051813 13.846873 -42.168871 19.971735 -11.975168 11.038841 -39.012492 -6.430119 55.498820 0.000000 0.000000 0.000000
20.018538 67.343192 349.642099 0.418765 -15.778210 37.815539 1.527052 0.082245 -37.554443 -0.080420 0.918785 0.046362 4.315978 6.709753 -3.645020 0.000000 0.000000 0.000000 -127.908257 -51.028507 -36.579628 -1.561142 11.577803 88.227076 24.035803 4.541577 -155.522181 15.854661 -20.534206 44.405481 0.000000 0.000000 0.000000 0.000000 0.000000 0.000000 6.330225 -40.293464 -9.009152 -1.312597 8.479842 5.909726 -0.779890 -2.677685 -0.833997 -3.535543 1.460438 4.556518 0.000000 0.000000 0.000000 0.000000 0.000000 0.000000 5.346786 25.291152 -36.896307 10.253947 16.083521 -3.159009 -8.744591 -19.198645 6.836653 0.000000 0.000000 0.000000 7.890080 19.006980 -39.122565 22.897616 -19.297706 14.254768 -37.865444 -1.976418 64.524631 0.000000 0.000000 0.000000
20.655223 67.417078 351.158424 -0.359425 -15.776122 36.184507 1.451178 0.027367 -36.057477 -0.017560 0.903113 0.006521 5.836895 5.406627 -4.125868 0.000000 0.000000 0.000000 -136.153916 -50.737396 -43.732892 3.724278 13.770478 83.644312 22.781149 3.457938 -151.561693 14.529704 -24.767651 35.272232 0.000000 0.000000 0.000000 0.000000 0.000000 0.000000 6.740864 -36.415614 -8.688855 -2.140780 10.359004 5.993176 0.761736 -2.046615 -1.834681 -6.614417 -2.942256 6.917344 0.000000 0.000000 0.000000 0.000000 0.000000 0.000000 6.970457 26.143466 -35.492416 9.179666 14.606293 -3.771687 -16.385371 -14.194750 12.300912 0.000000 0.000000 0.000000 11.236834 21.818758 -38.411713 23.074507 -24.373360 15.913074 -36.740170 0.839922 68.977488 0.000000 0.000000 0.000000
21.454069 67.631233 352.723325 -0.860547 -16.166108 37.096648 1.526046 0.132080 -37.058976 0.004823 0.936020 -0.020659 5.622501 5.594614 -3.798221 0.000000 0.000000 0.000000 -144.561391 -49.992351 -53.727648 9.206876 11.823875 67.863455 29.570977 8.416071 -131.867732 7.854501 -35.786947 41.934542 0.000000 0.000000 0.000000 0.000000 0.000000 0.000000 6.915379 -34.583805 -8.354810 -3.785950 13.756287 6.821339 4.122260 -2.988664 -3.964505 -8.462936 -4.753458 7.803986 0.000000 0.000000 0.000000 0.000000 0.000000 0.000000 10.646059 27.097912 -37.083783 7.162709 12.690481 -4.811968 -24.373915 -8.852157 19.871645 0.000000 0.000000 0.000000 14.984102 21.672026 -40.043122 20.312803 -26.041622 15.305549 -35.889672 0.319072 70.717292 0.000000 0.000000 0.000000
22.156472 68.112766 354.542557 -1.640658 -16.807564 37.146241 1.825941 0.120117 -37.276639 0.117767 0.949881 -0.051377 6.160613 5.743301 -3.939181 0.000000 0.000000 0.000000 -153.248792 -48.268369 -64.540387 12.047969 8.375732 59.142039 34.739032 14.365805 -123.147361 1.968187 -46.956103 59.894143 0.000000 0.000000 0.000000 0.000000 0.000000 0.000000 7.334705 -32.415586 -8.540019 -5.071175 15.623814 7.734562 5.931595 -4.168978 -4.782770 -9.646159 -4.751558 8.191626 0.000000 0.000000 0.000000 0.000000 0.000000 0.000000 15.046241 27.995218 -38.047414 4.496027 10.894576 -6.247321 -34.668003 -6.973431 26.671488 0.000000 0.000000 0.000000 18.153077 19.466645 -40.405317 14.920223 -23.840091 12.594557 -34.424567 -2.372546 72.476082 0.000000 0.000000 0.000000
